<svg xmlns="http://www.w3.org/2000/svg" viewBox="0 0 64 64" width="300" height="300" role="img" aria-labelledby="brainTitle">
  <title id="brainTitle">Brain icon</title>
  <rect width="64" height="64" rx="8" fill="none"/>
  <g fill="none" stroke="#2659ff" stroke-width="2.5" stroke-linecap="round" stroke-linejoin="round">
    <path d="M21 28c-3 0-6 3-6 6 0 4 3 7 7 7h20c4 0 7-3 7-7 0-3-3-6-6-6"/>
    <path d="M28 20c-1-4-5-6-9-5-4 1-6 5-5 9"/>
    <path d="M36 20c1-4 5-6 9-5 4 1 6 5 5 9"/>
    <path d="M32 28v22"/>
    <path d="M24 32v10"/>
    <path d="M40 32v10"/>
  </g>
</svg>
